# xmcd
#
# Track frame offsets:
#	150
#	20747
#	48820
#	67725
#	97142
#	119800
#	141512
#	158985
#	187342
#	209032
#
# Disc length: 3083 seconds
#
# Revision: 1
# Processed by: cddbd v1.5.1PL0 Copyright (c) Steve Scherf et al.
# Submitted via: audiograbber 1.83.01
#
DISCID=a10c090a
DTITLE=Various Artist - Nang Que Me
DYEAR=2000
DGENRE=VN Vocal
TTITLE0=Huong Lan - Huong Tham
TTITLE1=Son Ca, Duy Quang - Vo Chong Que
TTITLE2=Duy Khanh - Que Huong
TTITLE3=Son Ca - Hing Bong Que Nha
TTITLE4=Duy Quang - Gio Ve Mien Xuoi
TTITLE5=Huong Lan, Duy Quang - Chua Chieu Nao Buon Bang Chieu Nay
TTITLE6=Son Ca - Con Do Que Huong
TTITLE7=Duy Khanh - Tren Nhip Cau Tre
TTITLE8=Huong Lan - Nang Que Me
TTITLE9=Duy Quang - Ba Me Que
EXTD=
EXTT0=
EXTT1=
EXTT2=
EXTT3=
EXTT4=
EXTT5=
EXTT6=
EXTT7=
EXTT8=
EXTT9=
PLAYORDER=
